<svg xmlns="http://www.w3.org/2000/svg" width="36.579" height="28.788" viewBox="0 0 36.579 28.788">
  <path id="Path_60" data-name="Path 60" d="M165.808,7.772a.316.316,0,0,0-.012-.058c-.033-.038.045,0-.12-.193l0,0a.294.294,0,0,0-.03-.028.311.311,0,0,0-.126-.074.409.409,0,0,0-.177-.035l-.031,0a.417.417,0,0,0-.077.011,1.96,1.96,0,0,0-.343.113,67.239,67.239,0,0,1-11.187,3.241A65.35,65.35,0,0,1,149.54,3.62c-.511-1.018-.9-1.852-1.164-2.436-.133-.291-.235-.517-.307-.677-.036-.081-.066-.142-.09-.193a.445.445,0,0,0-.045-.079.318.318,0,0,0-.047-.067c-.047-.019-.029-.124-.353-.169-.337.045-.321.15-.366.169a1.961,1.961,0,0,0-.208.394,67.131,67.131,0,0,1-5.613,10.188,65.734,65.734,0,0,1-7.912-2.071c-1.08-.356-1.948-.673-2.559-.9-.3-.115-.545-.207-.718-.27a1.722,1.722,0,0,0-.366-.117h0a.624.624,0,0,0-.077-.008h-.01a.358.358,0,0,0-.17.032c-.015.006-.031.012-.047.02a.571.571,0,0,0-.113.083.33.33,0,0,0-.084.112.407.407,0,0,0-.053.189c0,.03,0,.03,0,.032a1.493,1.493,0,0,0,.128.452,66.7,66.7,0,0,1,3.38,11.907c.849,3.43,2.307,6.545,5.291,7.877a7.659,7.659,0,0,0,3.272.7,9.169,9.169,0,0,0,6.22-2.484,9.15,9.15,0,0,0,6.217,2.483,7.686,7.686,0,0,0,3.285-.7c2.972-1.326,4.431-4.443,5.274-7.844a64.688,64.688,0,0,1,2.214-8.659c.356-1.08.67-1.948.9-2.558.112-.305.2-.546.27-.72a2.517,2.517,0,0,0,.11-.331.424.424,0,0,0,.016-.12h0v0h0A.29.29,0,0,0,165.808,7.772Zm-12.456,4.109a12.56,12.56,0,0,1,2.135,6.217,6.146,6.146,0,0,1-.408,2.237,7.845,7.845,0,0,1-6.459,4.814,9.165,9.165,0,0,0,2.021-5.7,7.65,7.65,0,0,0-.706-3.286,7.114,7.114,0,0,0-1.677-2.3,14.544,14.544,0,0,1,4.895-2.065h0l.129-.025C153.305,11.813,153.329,11.846,153.353,11.881Zm-11.583-.1.11.021a14.572,14.572,0,0,1,4.917,2.07,7.171,7.171,0,0,0-1.686,2.313,7.643,7.643,0,0,0-.7,3.273,9.153,9.153,0,0,0,2.024,5.7,7.84,7.84,0,0,1-6.457-4.8,6.16,6.16,0,0,1-.413-2.248,12.57,12.57,0,0,1,2.149-6.239C141.732,11.833,141.75,11.805,141.77,11.777Zm7.324,4.779a6.732,6.732,0,0,1,.62,2.9,8.247,8.247,0,0,1-2.188,5.537,8.238,8.238,0,0,1-2.19-5.538,6.764,6.764,0,0,1,.615-2.885,6.219,6.219,0,0,1,1.576-2.116A6.173,6.173,0,0,1,149.094,16.556ZM147.521,1.569l.006-.012a67.576,67.576,0,0,0,5.2,9.4,14.889,14.889,0,0,0-5.2,2.289,14.9,14.9,0,0,0-5.2-2.289,66.394,66.394,0,0,0,4.017-6.922C146.859,3.006,147.253,2.158,147.521,1.569Zm-9.1,25.677c-2.569-1.127-3.955-3.916-4.773-7.228a65.293,65.293,0,0,0-2.234-8.727c-.362-1.095-.683-1.976-.913-2.593-.01-.026-.019-.053-.029-.078A67.426,67.426,0,0,0,140.8,11.591a13.217,13.217,0,0,0-2.163,6.509,7.08,7.08,0,0,0,.471,2.569,8.745,8.745,0,0,0,7.274,5.4,8.235,8.235,0,0,1-5.073,1.787A6.748,6.748,0,0,1,138.423,27.246Zm22.974-7.2c-.81,3.284-2.2,6.073-4.754,7.194a6.767,6.767,0,0,1-2.9.621,8.23,8.23,0,0,1-5.075-1.788,8.747,8.747,0,0,0,7.28-5.415,7.108,7.108,0,0,0,.464-2.559,13.212,13.212,0,0,0-2.162-6.508,66.689,66.689,0,0,0,7.654-2.029c1.1-.362,1.977-.683,2.593-.913l.08-.029A66.728,66.728,0,0,0,161.4,20.045Z" transform="translate(-129.236)" fill="#e27866"/>
</svg>
